<svg xmlns="http://www.w3.org/2000/svg" viewBox="0 0 154.5 136.36"><style><![CDATA[.svg-path{fill:#FFFFFF}]]></style><path class="svg-path" d="M154.5 12.03L108.78 40.1a1.9 1.9 0 0 0-.86 2.16 4.8 4.8 0 0 0 4.3 3.37c3 .18 6.75.88 9 3.1 1.92 1.9 2.72 8.76 2.72 11.65s-1 7.57-3.13 9.48-7.73 2.86-12.9 2.86h-8.2a2.4 2.4 0 0 1-2.38-2.38V47.08l-22.9 15.35v73.93l20.24-13.14a6.5 6.5 0 0 0 2.61-5.23V91.26c0-.5.2-1 .56-1.36s.85-.56 1.36-.56h11.55c11.5 0 22.2-2.5 27.8-7.5s8.4-14 8.4-22.9c0-7.2-1.8-15.9-5.36-21.3-.77-1.14-.64-2.67.3-3.67zM74.9.03a5.5 5.5 0 0 0-5.28 3.9L52.25 60.18a3 3 0 0 1-2.2 2.09c-1.4.3-2.8-.52-3.27-1.9L28 3.8A5.5 5.5 0 0 0 22.76.03H0l26.15 69.22c.7 1.85 1.35 2.78.35 5.78l-13 24L32.9 87.1l41.13-25.95L96.73.03z"/></svg>