<svg id="Top_Layer" data-name="Top Layer" xmlns="http://www.w3.org/2000/svg" viewBox="0 0 154.5 136.36"><defs><style>.cls-1{fill:#0f0900;}</style></defs><title>VP_monogram</title><g id="Monogram"><path class="cls-1" d="M201,76,171.09,94.55l-15.81,9.52a1.88,1.88,0,0,0-.86,2.16,4.83,4.83,0,0,0,4.31,3.37c3,.18,6.75.88,9,3.1,1.92,1.91,2.72,8.76,2.72,11.65s-1,7.57-3.13,9.48-7.73,2.86-12.89,2.86h-8.22a2.38,2.38,0,0,1-2.38-2.38V111.05L120.94,126.4v73.93l20.24-13.14a6.51,6.51,0,0,0,2.61-5.23V155.23a1.92,1.92,0,0,1,1.92-1.92h11.55c11.5,0,22.2-2.5,27.81-7.51s8.4-14,8.4-22.89c0-7.21-1.79-15.9-5.36-21.3a2.94,2.94,0,0,1,.31-3.67Z" transform="translate(-46.5 -63.97)"/><path class="cls-1" d="M121.4,64a5.52,5.52,0,0,0-5.28,3.9L98.75,124.15a3,3,0,0,1-2.2,2.09,2.85,2.85,0,0,1-3.27-1.89L74.51,67.76A5.54,5.54,0,0,0,69.26,64H46.5l26.15,69.22C73.36,135.07,74,136,73,139L60,163l19.4-11.94h0l41.13-25.95L143.23,64Z" transform="translate(-46.5 -63.97)"/></g></svg>