<svg id="Layer_1" data-name="Layer 1" xmlns="http://www.w3.org/2000/svg" xmlns:xlink="http://www.w3.org/1999/xlink" viewBox="0 0 250 250"><defs><style>.cls-1,.cls-4{fill:none;}.cls-2{clip-path:url(#clip-path);}.cls-3{fill:#none;}.cls-4{stroke:#000;stroke-miterlimit:10;}.cls-5{fill:#fcc000;}</style><clipPath id="clip-path"><rect class="cls-1" x="50" y="50" width="50" height="50"/></clipPath></defs><title>sample_topic</title><g class="cls-2"><polyline class="cls-3" points="165.5 127.25 125.5 56.25 85.5 127.75"/><polyline class="cls-4" points="165.5 127.25 125.5 56.25 85.5 127.75"/><polyline class="cls-3" points="86.5 194.75 85.5 127.75 56.5 194.75"/><polyline class="cls-4" points="86.5 194.75 85.5 127.75 56.5 194.75"/><line class="cls-4" x1="125.5" y1="55.75" x2="125.5" y2="127.75"/><polyline class="cls-3" points="125.5 127.75 140.5 194.75 125.5 127.75 110.5 194.75"/><polyline class="cls-4" points="125.5 127.75 140.5 194.75 125.5 127.75 110.5 194.75"/><polyline class="cls-3" points="164.5 194.75 165.5 127.75 194.5 194.75"/><polyline class="cls-4" points="164.5 194.75 165.5 127.75 194.5 194.75"/><g class="cls-2"><path class="cls-5" d="M90.5,127.5a5,5,0,1,1-5-5,5,5,0,0,1,5,5"/><circle class="cls-4" cx="85.5" cy="127.5" r="5"/><path class="cls-5" d="M61.5,194.5a5,5,0,1,1-5-5,5,5,0,0,1,5,5"/><circle class="cls-4" cx="56.5" cy="194.5" r="5"/><path class="cls-5" d="M91.5,194.5a5,5,0,1,1-5-5,5,5,0,0,1,5,5"/><circle class="cls-4" cx="86.5" cy="194.5" r="5"/><path class="cls-5" d="M115.5,194.5a5,5,0,1,1-5-5,5,5,0,0,1,5,5"/><circle class="cls-4" cx="110.5" cy="194.5" r="5"/><path class="cls-5" d="M130.5,127.5a5,5,0,1,1-5-5,5,5,0,0,1,5,5"/><circle class="cls-4" cx="125.5" cy="127.5" r="5"/><path class="cls-5" d="M145.5,194.5a5,5,0,1,1-5-5,5,5,0,0,1,5,5"/><circle class="cls-4" cx="140.5" cy="194.5" r="5"/><path class="cls-5" d="M170.5,127.5a5,5,0,1,1-5-5,5,5,0,0,1,5,5"/><circle class="cls-4" cx="165.5" cy="127.5" r="5"/><path class="cls-5" d="M169.5,194.5a5,5,0,1,1-5-5,5,5,0,0,1,5,5"/><circle class="cls-4" cx="164.5" cy="194.5" r="5"/><path class="cls-5" d="M199.5,194.5a5,5,0,1,1-5-5,5,5,0,0,1,5,5"/><circle class="cls-4" cx="194.5" cy="194.5" r="5"/><path class="cls-5" d="M130.5,55.5a5,5,0,1,1-5-5,5,5,0,0,1,5,5"/><circle class="cls-4" cx="125.5" cy="55.5" r="5"/></g></g><path d="M250,0V250H0V0H250m1-1H-1V251H251V-1Z"/></svg>