<?xml version="1.0" encoding="UTF-8" standalone="no"?>
<!-- Created with Inkscape (http://www.inkscape.org/) -->

<svg
   width="200mm"
   height="200mm"
   viewBox="0 0 200 200"
   version="1.1"
   id="svg1"
   inkscape:version="1.3.2 (091e20e, 2023-11-25)"
   sodipodi:docname="convex_hull_set.svg"
   inkscape:export-filename="convex_hull_set.dark.png"
   inkscape:export-xdpi="96"
   inkscape:export-ydpi="96"
   xmlns:inkscape="http://www.inkscape.org/namespaces/inkscape"
   xmlns:sodipodi="http://sodipodi.sourceforge.net/DTD/sodipodi-0.dtd"
   xmlns="http://www.w3.org/2000/svg"
   xmlns:svg="http://www.w3.org/2000/svg">
  <sodipodi:namedview
     id="namedview1"
     pagecolor="#ffffff"
     bordercolor="#000000"
     borderopacity="0.25"
     inkscape:showpageshadow="2"
     inkscape:pageopacity="0.0"
     inkscape:pagecheckerboard="0"
     inkscape:deskcolor="#d1d1d1"
     inkscape:document-units="mm"
     inkscape:zoom="0.84096521"
     inkscape:cx="366.24583"
     inkscape:cy="397.75724"
     inkscape:window-width="1920"
     inkscape:window-height="942"
     inkscape:window-x="0"
     inkscape:window-y="25"
     inkscape:window-maximized="1"
     inkscape:current-layer="layer1"
     inkscape:export-bgcolor="#191516ff" />
  <defs
     id="defs1" />
  <g
     inkscape:label="Layer 1"
     inkscape:groupmode="layer"
     id="layer1">
    <path
       style="fill:#ef767a;fill-opacity:0.30000001;stroke:#ef767a;stroke-width:2;stroke-linecap:round;stroke-opacity:1;stroke-dasharray:none"
       d="M 29.988083,169.22026 C 14.886389,154.43319 14.09027,139.51441 19.827738,128.93791 27.584436,114.63915 74.212753,35.93269 102.88707,23.540657 c 19.15048,-8.276165 34.81114,-7.367085 51.59745,3.146186 24.10976,15.099946 40.27118,53.170549 16.9894,90.610167 -12.58407,20.23655 -30.03407,43.76009 -72.187251,57.67063 -31.46186,10.38242 -59.038592,4.29886 -69.298586,-5.74738 z"
       id="path1-0"
       sodipodi:nodetypes="sssssss" />
    <path
       style="fill:none;stroke:#ebe8e7;stroke-width:1;stroke-linecap:round;stroke-opacity:0.99607843;stroke-dasharray:none"
       d="M 29.819378,169.31689 C 14.717684,154.52982 13.714626,138.58564 20.602889,128.71991 32.057965,112.31335 42.305515,122.03229 62.132552,123.68601 86.386029,125.70893 98.313697,107.01122 95.796747,92.853379 92.791587,75.949357 82.897379,75.863976 79.436576,62.335372 75.975771,48.806771 85.391722,31.110087 103.66222,23.322661 c 19.19173,-8.180085 33.86728,-7.052466 50.6536,3.460805 24.10976,15.099946 40.27118,53.170549 16.9894,90.610164 -12.58407,20.23655 -30.03407,43.7601 -72.187256,57.67064 -31.46186,10.38242 -59.038592,4.29886 -69.298586,-5.74738 z"
       id="path1"
       sodipodi:nodetypes="ssssssssss" />
  </g>
</svg>
